<?xml version="1.0" standalone="no"?>
<!DOCTYPE svg PUBLIC "-//W3C//DTD SVG 20010904//EN"
 "http://www.w3.org/TR/2001/REC-SVG-20010904/DTD/svg10.dtd">
<svg version="1.0" xmlns="http://www.w3.org/2000/svg"
 width="512.000000pt" height="512.000000pt" viewBox="0 0 512.000000 512.000000"
 preserveAspectRatio="xMidYMid meet">
<metadata>
Created by potrace 1.16, written by Peter Selinger 2001-2019
</metadata>
<g transform="translate(0.000000,512.000000) scale(0.100000,-0.100000)"
fill="#000000" stroke="none">
<path d="M2455 4390 c-394 -32 -773 -219 -1063 -525 -207 -217 -376 -521 -437
-786 -18 -76 -19 -77 -54 -83 -20 -3 -62 -6 -93 -6 -68 0 -108 -28 -126 -87
-57 -192 -55 -571 4 -685 23 -45 52 -57 157 -64 53 -4 101 -12 105 -18 5 -6
19 -40 31 -76 31 -87 137 -308 191 -395 92 -150 280 -357 425 -467 216 -163
458 -273 690 -313 125 -21 171 -15 226 31 l41 34 116 0 c598 0 1166 387 1407
959 32 74 95 291 95 325 0 6 -28 -52 -63 -129 -141 -315 -224 -442 -407 -626
-149 -150 -257 -228 -425 -309 -202 -97 -379 -140 -617 -149 l-167 -6 -38 -38
c-34 -32 -45 -37 -86 -37 -107 0 -331 63 -482 135 -208 100 -458 297 -573 453
-100 134 -205 338 -272 529 -81 228 -113 468 -92 691 7 71 19 151 27 178 7 27
27 96 44 154 134 468 436 843 861 1068 107 57 228 101 375 139 136 34 401 43
555 19 200 -32 417 -119 595 -240 208 -141 526 -514 655 -769 30 -58 55 -105
57 -103 7 6 -51 145 -103 246 -77 152 -159 272 -256 375 -47 50 -88 102 -91
116 -18 74 -316 276 -522 355 -223 85 -468 122 -690 104z m-1655 -1477 c0 -5
-7 -53 -15 -108 -20 -136 -17 -178 5 -80 39 175 49 195 96 195 19 0 24 -4 20
-17 -3 -10 -10 -65 -17 -123 -15 -130 -6 -341 19 -467 10 -51 15 -93 11 -93
-7 0 -49 164 -49 194 0 9 -4 16 -9 16 -12 0 -19 -98 -11 -160 9 -72 -5 -49
-31 50 -26 101 -44 128 -35 55 3 -27 8 -75 12 -105 8 -75 -9 -54 -31 38 -9 39
-20 72 -22 72 -6 0 5 -113 14 -138 4 -13 3 -14 -6 -6 -6 6 -18 44 -27 85 -40
190 1 599 60 599 9 0 16 -3 16 -7z"/>
<path d="M2443 4213 c15 -2 37 -2 50 0 12 2 0 4 -28 4 -27 0 -38 -2 -22 -4z"/>
<path d="M2808 4213 c6 -2 18 -2 25 0 6 3 1 5 -13 5 -14 0 -19 -2 -12 -5z"/>
<path d="M2280 4197 c-30 -5 -50 -11 -45 -13 6 -2 44 2 85 10 41 8 62 14 45
14 -16 0 -55 -5 -85 -11z"/>
<path d="M2942 4185 c53 -13 154 -49 225 -80 158 -69 163 -72 135 -51 -69 52
-366 157 -436 155 -11 0 22 -11 76 -24z"/>
<path d="M2165 4170 c-25 -11 1 -11 35 0 20 6 21 8 5 8 -11 0 -29 -3 -40 -8z"/>
<path d="M1925 4081 c-371 -183 -659 -513 -790 -904 -45 -134 -54 -192 -31
-200 13 -5 21 2 32 28 7 19 14 40 14 48 0 7 13 51 29 98 128 375 408 698 756
875 119 60 141 76 131 93 -12 19 -39 12 -141 -38z"/>
<path d="M3270 4020 c120 -73 232 -163 325 -261 72 -76 99 -109 189 -232 26
-36 46 -41 46 -13 0 28 -104 171 -187 257 -109 113 -191 175 -313 238 -132 67
-162 73 -60 11z"/>
<path d="M2400 3980 c-158 -28 -395 -102 -425 -133 -7 -7 -4 -7 10 -2 11 4 92
25 180 46 284 69 359 89 369 99 14 14 -9 12 -134 -10z"/>
<path d="M2818 3963 c6 -2 18 -2 25 0 6 3 1 5 -13 5 -14 0 -19 -2 -12 -5z"/>
<path d="M2930 3939 c337 -88 605 -311 770 -639 103 -205 139 -363 141 -609 1
-126 3 -147 11 -111 15 72 12 305 -5 393 -63 310 -280 629 -558 818 -115 78
-342 170 -414 168 -11 0 14 -9 55 -20z"/>
<path d="M2610 3891 c-21 -7 -18 -9 25 -15 185 -25 353 -75 465 -138 71 -40
164 -111 218 -167 64 -67 49 -19 -17 52 -25 27 -25 29 -8 42 16 12 12 17 -49
55 -96 61 -188 104 -279 133 -128 40 -289 57 -355 38z"/>
<path d="M2042 3761 c-126 -70 -369 -259 -472 -367 -122 -129 -183 -233 -220
-379 -27 -107 -24 -138 4 -43 13 43 38 106 55 140 69 132 223 309 408 469 91
78 143 116 269 196 36 23 9 12 -44 -16z"/>
<path d="M3830 3479 c0 -6 24 -48 54 -92 104 -158 167 -306 207 -488 20 -86
24 -133 23 -269 0 -368 -103 -629 -339 -865 -133 -134 -309 -262 -469 -341
-130 -65 -136 -67 -217 -69 -46 -1 -138 -14 -204 -29 -75 -16 -165 -28 -240
-32 -105 -4 -199 -15 -272 -30 -14 -3 -23 -12 -23 -24 0 -14 9 -21 38 -25 20
-4 43 -8 50 -10 19 -6 14 -33 -7 -40 -27 -8 -202 29 -308 65 -131 45 -376 171
-478 245 -93 67 -118 75 -123 38 -3 -18 20 -37 134 -112 234 -155 474 -258
689 -294 82 -14 92 -14 115 1 19 12 55 16 160 18 237 3 420 50 660 170 226
114 410 263 570 464 211 265 301 477 325 770 12 142 -25 393 -84 570 -45 134
-156 344 -199 378 -20 15 -62 16 -62 1z m-605 -2136 c-49 -27 -161 -70 -196
-77 -19 -4 17 13 79 38 62 24 116 47 119 50 4 3 11 6 17 6 6 -1 -2 -8 -19 -17z"/>
<path d="M4121 3276 c-1 -10 6 -45 15 -78 8 -33 13 -67 10 -75 -3 -8 -2 -12 3
-9 5 3 18 -31 30 -77 12 -45 26 -95 31 -112 18 -60 0 45 -30 170 -31 128 -58
212 -59 181z"/>
<path d="M3906 3245 c3 -11 16 -53 29 -93 95 -288 93 -586 -5 -935 -43 -153
-120 -300 -216 -414 -86 -100 -39 -114 64 -19 77 71 220 292 208 322 -3 7 -16
16 -29 19 l-24 7 23 73 c51 160 67 269 68 450 0 119 -5 197 -16 260 -21 110
-62 255 -89 310 -10 22 -17 31 -13 20z"/>
<path d="M2345 3181 c-69 -17 -145 -80 -180 -149 -10 -21 -22 -32 -30 -28 -31
11 -135 18 -135 9 0 -18 25 -32 78 -44 29 -6 52 -14 52 -17 0 -4 -6 -27 -14
-52 -11 -37 -19 -46 -45 -54 -35 -10 -37 -29 -3 -34 12 -2 22 -4 22 -5 0 -1
-7 -38 -15 -82 -17 -97 -19 -211 -4 -221 18 -11 26 12 32 94 4 42 14 108 24
145 l18 68 68 23 c63 21 107 49 96 60 -2 3 -29 -4 -59 -14 -92 -32 -105 -25
-76 44 13 32 16 33 82 38 77 6 163 41 131 53 -9 4 -37 2 -62 -4 -24 -6 -62
-11 -85 -11 l-41 0 15 28 c23 45 91 100 138 112 23 7 62 9 85 6 34 -4 43 -3
43 9 0 29 -68 42 -135 26z"/>
<path d="M2768 3043 c-27 -34 -45 -68 -81 -158 -43 -108 -54 -174 -37 -215 15
-35 37 -38 73 -10 l26 20 13 -27 c7 -15 20 -29 29 -31 14 -2 17 8 17 62 0 47
-5 69 -16 78 -12 11 -17 9 -26 -6 -16 -29 -53 -66 -66 -66 -14 0 -13 76 1 103
7 12 27 39 45 60 33 36 42 57 26 57 -5 0 -17 -9 -27 -20 -33 -37 -28 -12 14
64 40 73 50 106 33 106 -5 0 -16 -8 -24 -17z"/>
<path d="M2543 2978 c-27 -30 -45 -68 -72 -150 -13 -37 -27 -70 -32 -73 -5 -4
-9 -19 -9 -34 0 -18 -5 -28 -15 -28 -11 0 -15 13 -15 54 0 29 -4 53 -8 53 -5
0 -19 -19 -32 -41 -44 -79 -87 -105 -75 -46 10 48 49 102 84 117 25 10 29 15
20 26 -42 51 -149 -60 -149 -154 0 -21 5 -43 12 -50 20 -20 60 -14 88 13 l27
25 18 -20 c10 -11 28 -20 41 -20 12 0 34 -4 48 -9 69 -27 167 55 150 125 -7
27 -47 42 -67 26 -13 -11 -67 -34 -67 -29 0 2 18 28 40 57 43 58 64 111 58
150 -4 32 -20 35 -45 8z m13 -73 c-36 -61 -43 -57 -10 6 14 28 28 48 31 45 3
-3 -7 -26 -21 -51z m34 -170 c0 -27 -38 -55 -76 -55 l-36 0 48 34 c56 39 64
42 64 21z m-82 -7 c-6 -18 -28 -21 -28 -4 0 9 7 16 16 16 9 0 14 -5 12 -12z"/>
<path d="M1021 2956 c-36 -43 -53 -379 -27 -551 38 -257 169 -595 232 -595 23
0 17 24 -35 124 -57 110 -104 245 -132 378 -29 135 -36 390 -15 531 9 60 14
113 10 118 -8 13 -20 11 -33 -5z"/>
<path d="M2922 2938 c4 -27 33 -36 42 -13 8 22 -1 35 -25 35 -15 0 -20 -6 -17
-22z"/>
<path d="M1097 2926 c-3 -8 -11 -64 -18 -123 -21 -197 5 -413 76 -609 38 -107
61 -148 76 -138 15 9 6 53 -40 184 -60 173 -74 271 -67 475 3 94 7 181 8 195
3 28 -26 41 -35 16z"/>
<path d="M1322 2870 c0 -14 2 -19 5 -12 2 6 2 18 0 25 -3 6 -5 1 -5 -13z"/>
<path d="M2993 2844 c-38 -19 -59 -63 -44 -92 6 -11 35 -30 66 -42 46 -19 55
-27 53 -44 -4 -27 -69 -49 -120 -41 -43 8 -45 10 -21 33 16 16 15 17 -15 20
-38 4 -38 10 -15 98 9 35 14 66 10 70 -11 11 -44 -24 -51 -54 -33 -147 -31
-167 15 -157 22 5 29 3 29 -8 0 -43 98 -61 160 -29 83 42 77 107 -16 148 -32
14 -54 30 -52 37 3 6 27 16 54 21 80 14 82 15 55 37 -28 23 -65 24 -108 3z"/>
<path d="M4270 2830 c0 -12 8 -35 17 -53 29 -53 20 -476 -13 -607 l-6 -25 16
22 c9 12 25 55 36 95 18 67 19 69 14 23 -3 -27 -7 -66 -10 -85 -10 -79 16 2
42 126 23 112 25 144 20 244 -3 63 -10 130 -15 148 -10 33 1 45 14 15 17 -42
18 -273 0 -395 -23 -165 -31 -184 -86 -193 -62 -11 -103 -55 -119 -128 -7 -31
-10 -60 -6 -65 9 -8 53 44 62 73 11 36 36 55 71 55 51 0 100 25 118 60 32 62
49 196 49 385 0 256 -9 280 -126 311 -70 18 -78 18 -78 -6z m76 -155 l2 -80
-9 69 c-5 38 -15 76 -21 84 -10 12 -9 14 7 11 18 -4 20 -13 21 -84z"/>
<path d="M4254 2583 c0 -170 -4 -229 -21 -323 -12 -63 -20 -117 -17 -119 12
-13 36 32 49 94 31 140 29 515 -3 547 -5 5 -8 -79 -8 -199z"/>
<path d="M1364 2630 c3 -110 9 -151 30 -224 55 -184 121 -291 299 -487 232
-256 481 -386 802 -419 295 -31 614 82 867 307 61 54 174 180 193 214 4 8 -12
-8 -35 -36 -228 -267 -519 -435 -808 -468 -128 -14 -280 5 -424 53 -233 78
-379 177 -536 363 -245 290 -347 487 -378 727 l-13 105 3 -135z"/>
<path d="M1602 2620 c0 -14 2 -19 5 -12 2 6 2 18 0 25 -3 6 -5 1 -5 -13z"/>
<path d="M1610 2579 c-1 -54 70 -220 138 -322 63 -96 209 -241 306 -307 182
-122 328 -170 541 -177 294 -11 496 64 768 282 179 144 271 275 316 449 12 44
19 81 16 84 -2 2 -7 -9 -11 -24 -33 -136 -234 -410 -384 -523 -151 -113 -390
-214 -588 -248 -87 -15 -112 -16 -187 -5 -154 23 -310 82 -445 171 -30 19
-101 80 -157 134 -143 139 -219 254 -284 427 -15 41 -28 68 -29 59z"/>
<path d="M3881 2243 c-1 -6 -4 -20 -7 -30 -5 -17 -5 -17 6 0 6 10 9 23 6 30
-3 9 -5 9 -5 0z"/>
<path d="M3820 2098 c-24 -50 -68 -125 -98 -166 -30 -42 -47 -70 -38 -63 28
24 124 174 157 246 45 101 30 88 -21 -17z"/>
<path d="M1267 2063 c56 -136 132 -251 234 -358 45 -46 84 -83 88 -82 4 1 47
-26 97 -61 89 -63 194 -127 194 -119 0 2 -28 21 -62 42 -112 68 -245 174 -313
248 -73 79 -170 218 -216 309 -33 65 -46 77 -22 21z"/>
<path d="M894 2059 c11 -58 80 -189 151 -289 90 -126 96 -130 40 -30 -25 47
-66 128 -91 180 -64 139 -77 163 -93 168 -11 4 -13 -3 -7 -29z"/>
<path d="M1240 1995 c0 -18 90 -178 134 -239 24 -34 65 -84 90 -113 38 -42 52
-52 76 -50 29 2 28 4 -55 87 -48 48 -119 136 -164 205 -45 65 -81 115 -81 110z"/>
<path d="M4180 1928 c-21 -35 -26 -68 -11 -68 17 0 51 52 51 76 0 33 -17 30
-40 -8z"/>
<path d="M3644 1828 l-19 -23 23 19 c12 11 22 21 22 23 0 8 -8 2 -26 -19z"/>
<path d="M3410 1600 c-101 -59 -290 -139 -415 -175 -247 -71 -515 -89 -724
-46 -58 11 -106 19 -108 17 -6 -6 190 -55 267 -67 224 -35 557 30 803 155 95
48 267 153 267 162 0 6 2 7 -90 -46z"/>
<path d="M3794 1177 c-30 -26 -26 -47 10 -47 23 0 56 28 56 47 0 9 -22 23 -35
23 -2 0 -16 -11 -31 -23z"/>
<path d="M3480 1098 c-36 -27 -102 -70 -146 -94 -91 -49 -107 -64 -102 -91 5
-26 36 -20 109 23 97 57 258 219 212 213 -5 0 -37 -23 -73 -51z"/>
<path d="M2946 867 c-79 -26 -108 -54 -80 -81 18 -18 28 -17 112 16 58 23 81
50 61 74 -14 17 -9 18 -93 -9z"/>
<path d="M2682 808 c-28 -28 -1 -75 37 -63 11 3 23 15 26 26 12 38 -35 65 -63
37z"/>
</g>
</svg>